<?xml version="1.0" standalone="no"?>
<!DOCTYPE svg PUBLIC "-//W3C//DTD SVG 20010904//EN"
 "http://www.w3.org/TR/2001/REC-SVG-20010904/DTD/svg10.dtd">
<svg version="1.0" xmlns="http://www.w3.org/2000/svg"
 width="173.000000pt" height="51.000000pt" viewBox="0 0 173.000000 51.000000"
 preserveAspectRatio="xMidYMid meet">

<g transform="translate(0.000000,51.000000) scale(0.100000,-0.100000)"
fill="#000000" stroke="none">
<path d="M77 432 c-14 -16 -17 -43 -17 -170 l0 -151 26 -20 c26 -21 33 -21
779 -21 746 0 753 0 779 21 l26 20 0 153 c0 135 -2 155 -18 169 -17 16 -86 17
-789 17 -733 0 -771 -1 -786 -18z m273 -54 c0 -14 -30 -48 -42 -48 -13 0 -9
22 9 42 18 21 33 23 33 6z m530 -86 c0 -32 5 -63 12 -70 16 -16 1 -29 -20 -16
-24 15 -31 144 -7 144 12 0 15 -12 15 -58z m-306 -9 c10 -32 21 -64 23 -70 3
-7 -2 -13 -11 -13 -9 0 -19 7 -22 15 -4 8 -17 15 -30 15 -14 0 -27 -7 -30 -15
-4 -8 -13 -15 -21 -15 -8 0 -13 6 -10 13 2 6 13 38 23 70 14 46 22 57 39 57
17 0 25 -11 39 -57z m-193 30 c9 -10 9 -17 1 -25 -17 -17 -15 -48 5 -70 16
-17 15 -20 -4 -46 -18 -24 -27 -27 -79 -27 -55 0 -59 2 -81 34 -28 42 -31 103
-5 129 24 24 145 27 163 5z m809 7 c0 -5 7 -10 15 -10 8 0 15 -7 15 -15 0 -8
-7 -15 -15 -15 -9 0 -15 -9 -15 -25 0 -16 6 -25 15 -25 8 0 15 -7 15 -15 0
-18 -34 -20 -47 -2 -13 16 -24 84 -16 103 6 16 33 19 33 4z m-492 -22 c17 -14
15 -73 -3 -88 -8 -7 -24 -10 -35 -7 -16 4 -20 0 -20 -19 0 -15 -6 -24 -15 -24
-12 0 -15 15 -15 74 l0 74 38 0 c20 0 43 -5 50 -10z m120 0 c17 -14 15 -73 -3
-88 -8 -7 -24 -10 -35 -7 -16 4 -20 0 -20 -19 0 -15 -6 -24 -15 -24 -12 0 -15
15 -15 74 l0 74 38 0 c20 0 43 -5 50 -10z m170 0 c7 -7 12 -20 12 -30 0 -13
-8 -18 -30 -18 -16 0 -30 -5 -30 -11 0 -6 10 -10 23 -9 36 3 40 1 27 -15 -29
-35 -82 -9 -82 40 0 47 49 74 80 43z m140 -5 c2 -8 -6 -13 -20 -14 l-23 0 23
-9 c29 -12 38 -36 21 -56 -16 -20 -63 -14 -67 9 -3 15 1 17 25 12 l28 -6 -27
16 c-29 16 -37 49 -15 59 20 8 50 2 55 -11z m183 7 c13 -7 19 -21 19 -45 0
-35 -20 -55 -54 -55 -40 0 -61 64 -30 94 18 19 38 20 65 6z m109 -5 c0 -7 -9
-15 -20 -18 -15 -4 -20 -14 -20 -41 0 -25 -4 -36 -15 -36 -11 0 -15 13 -15 54
l0 54 35 0 c22 0 35 -5 35 -13z m88 3 c7 -7 12 -20 12 -30 0 -13 -8 -18 -30
-18 -16 0 -30 -5 -30 -11 0 -6 10 -10 23 -9 36 3 40 1 27 -15 -15 -18 -51 -20
-68 -3 -7 7 -12 26 -12 43 0 36 15 55 45 55 12 0 26 -5 33 -12z"/>
<path d="M527 285 c-8 -20 -4 -29 11 -24 5 2 6 13 2 23 -6 19 -7 19 -13 1z"/>
<path d="M644 265 c-7 -18 3 -35 22 -35 8 0 14 10 14 25 0 27 -27 35 -36 10z"/>
<path d="M764 265 c-7 -18 3 -35 22 -35 8 0 14 10 14 25 0 27 -27 35 -36 10z"/>
<path d="M945 280 c-3 -5 1 -10 10 -10 9 0 13 5 10 10 -3 6 -8 10 -10 10 -2 0
-7 -4 -10 -10z"/>
<path d="M1260 255 c0 -18 5 -25 20 -25 15 0 20 7 20 25 0 18 -5 25 -20 25
-15 0 -20 -7 -20 -25z"/>
<path d="M1465 280 c-3 -5 1 -10 10 -10 9 0 13 5 10 10 -3 6 -8 10 -10 10 -2
0 -7 -4 -10 -10z"/>
</g>
</svg>
