<svg width="173" height="51" viewBox="0 0 173 51" fill="none" xmlns="http://www.w3.org/2000/svg">
<rect width="173" height="50.8636" rx="25.4318" fill="#91366C"/>
<path d="M41.8257 26.1546C41.8135 24.0745 42.756 22.5068 44.6592 21.3509C43.5947 19.8259 41.9843 18.9871 39.8615 18.8255C37.8515 18.6669 35.6525 19.9967 34.8473 19.9967C33.9963 19.9967 32.0504 18.8804 30.5193 18.8804C27.3595 18.9292 24.0015 21.3997 24.0015 26.4261C24.0015 27.9115 24.2729 29.4456 24.8158 31.0255C25.5417 33.1056 28.1586 38.2022 30.8884 38.1198C32.3158 38.0863 33.3253 37.1072 35.1828 37.1072C36.9853 37.1072 37.9186 38.1198 39.5107 38.1198C42.2649 38.0802 44.6317 33.4472 45.321 31.361C41.6274 29.6195 41.8257 26.2614 41.8257 26.1546V26.1546ZM38.6201 16.8521C40.1665 15.016 40.0262 13.3446 39.9804 12.7438C38.614 12.8231 37.0341 13.674 36.1344 14.7202C35.1431 15.8426 34.5606 17.2303 34.6856 18.795C36.1618 18.9078 37.5099 18.1484 38.6201 16.8521V16.8521Z" fill="white"/>
<path d="M61.5323 30.9319L65.6281 19.0459H68.4711L72.5831 30.9319H70.3022L69.4509 28.4262H64.6644L63.8131 30.9319H61.5323ZM65.2908 26.5308H68.8245L67.0577 21.2785L65.2908 26.5308ZM74.2987 34.0801V22.4189H76.435V23.6075H76.5474C76.6224 23.479 76.7562 23.3077 76.949 23.0935C77.1524 22.8794 77.4308 22.6866 77.7842 22.5153C78.1376 22.344 78.5873 22.2583 79.1334 22.2583C79.7759 22.2583 80.3327 22.3868 80.8039 22.6438C81.2751 22.8901 81.6659 23.2274 81.9764 23.6557C82.287 24.0733 82.5172 24.5445 82.6671 25.0692C82.8277 25.5939 82.9081 26.1293 82.9081 26.6754C82.9081 27.2215 82.8277 27.7569 82.6671 28.2816C82.5172 28.8063 82.287 29.2828 81.9764 29.7112C81.6659 30.1288 81.2751 30.4661 80.8039 30.7231C80.3327 30.9694 79.7759 31.0925 79.1334 31.0925C78.5873 31.0925 78.1376 31.0068 77.7842 30.8355C77.4308 30.6535 77.1524 30.4554 76.949 30.2412C76.7562 30.027 76.6224 29.8611 76.5474 29.7433H76.435V34.0801H74.2987ZM76.4029 26.6754C76.4029 27.1144 76.4832 27.5374 76.6438 27.9443C76.8044 28.3512 77.0453 28.6885 77.3666 28.9562C77.6878 29.2132 78.0894 29.3417 78.5713 29.3417C79.0638 29.3417 79.4707 29.2132 79.792 28.9562C80.1132 28.6885 80.3542 28.3512 80.5148 27.9443C80.6754 27.5374 80.7557 27.1144 80.7557 26.6754C80.7557 26.2364 80.6754 25.8134 80.5148 25.4065C80.3542 24.9996 80.1132 24.6676 79.792 24.4106C79.4707 24.1429 79.0638 24.0091 78.5713 24.0091C78.0894 24.0091 77.6878 24.1429 77.3666 24.4106C77.0453 24.6676 76.8044 24.9996 76.6438 25.4065C76.4832 25.8134 76.4029 26.2364 76.4029 26.6754ZM84.8709 34.0801V22.4189H87.0072V23.6075H87.1196C87.1946 23.479 87.3284 23.3077 87.5212 23.0935C87.7246 22.8794 88.003 22.6866 88.3564 22.5153C88.7098 22.344 89.1595 22.2583 89.7056 22.2583C90.3481 22.2583 90.9049 22.3868 91.3761 22.6438C91.8473 22.8901 92.2381 23.2274 92.5486 23.6557C92.8592 24.0733 93.0894 24.5445 93.2393 25.0692C93.3999 25.5939 93.4802 26.1293 93.4802 26.6754C93.4802 27.2215 93.3999 27.7569 93.2393 28.2816C93.0894 28.8063 92.8592 29.2828 92.5486 29.7112C92.2381 30.1288 91.8473 30.4661 91.3761 30.7231C90.9049 30.9694 90.3481 31.0925 89.7056 31.0925C89.1595 31.0925 88.7098 31.0068 88.3564 30.8355C88.003 30.6535 87.7246 30.4554 87.5212 30.2412C87.3284 30.027 87.1946 29.8611 87.1196 29.7433H87.0072V34.0801H84.8709ZM86.9751 26.6754C86.9751 27.1144 87.0554 27.5374 87.216 27.9443C87.3766 28.3512 87.6175 28.6885 87.9388 28.9562C88.26 29.2132 88.6616 29.3417 89.1434 29.3417C89.636 29.3417 90.0429 29.2132 90.3642 28.9562C90.6854 28.6885 90.9264 28.3512 91.087 27.9443C91.2476 27.5374 91.3279 27.1144 91.3279 26.6754C91.3279 26.2364 91.2476 25.8134 91.087 25.4065C90.9264 24.9996 90.6854 24.6676 90.3642 24.4106C90.0429 24.1429 89.636 24.0091 89.1434 24.0091C88.6616 24.0091 88.26 24.1429 87.9388 24.4106C87.6175 24.6676 87.3766 24.9996 87.216 25.4065C87.0554 25.8134 86.9751 26.2364 86.9751 26.6754ZM95.4431 30.9319L95.4592 18.7246H97.5794V30.9319H95.4431ZM103.786 31.0925C103.058 31.0925 102.426 30.9694 101.891 30.7231C101.366 30.4661 100.927 30.1288 100.574 29.7112C100.231 29.2828 99.9743 28.8063 99.803 28.2816C99.6316 27.7569 99.546 27.2215 99.546 26.6754C99.546 26.1293 99.6263 25.5992 99.7869 25.0852C99.9582 24.5605 100.21 24.084 100.542 23.6557C100.884 23.2274 101.318 22.8901 101.843 22.6438C102.368 22.3868 102.989 22.2583 103.706 22.2583C104.477 22.2583 105.157 22.4296 105.746 22.7723C106.335 23.1149 106.795 23.6182 107.127 24.2821C107.459 24.9353 107.625 25.7491 107.625 26.7236V27.2697H101.698C101.73 27.8479 101.929 28.3512 102.293 28.7795C102.657 29.1972 103.155 29.406 103.786 29.406C104.15 29.406 104.45 29.3471 104.686 29.2293C104.921 29.1115 105.104 28.9777 105.232 28.8277C105.36 28.6671 105.452 28.5333 105.505 28.4262C105.559 28.3084 105.585 28.2495 105.585 28.2495H107.561C107.561 28.2495 107.534 28.3459 107.481 28.5386C107.427 28.7207 107.325 28.9562 107.176 29.2454C107.036 29.5238 106.828 29.8075 106.549 30.0967C106.271 30.3751 105.907 30.6106 105.457 30.8034C105.007 30.9961 104.45 31.0925 103.786 31.0925ZM101.698 25.8723H105.569C105.537 25.2084 105.339 24.7158 104.975 24.3946C104.611 24.0733 104.183 23.9127 103.69 23.9127C103.144 23.9127 102.689 24.0894 102.325 24.4428C101.961 24.7854 101.752 25.2619 101.698 25.8723ZM116.633 31.0925C115.937 31.0925 115.364 31.0015 114.914 30.8194C114.465 30.6267 114.106 30.3911 113.838 30.1127C113.581 29.8236 113.388 29.5398 113.26 29.2614C113.131 28.983 113.046 28.7528 113.003 28.5707C112.971 28.378 112.955 28.2816 112.955 28.2816H114.978C114.978 28.2816 114.995 28.3405 115.027 28.4583C115.07 28.5761 115.144 28.7153 115.252 28.8759C115.369 29.0258 115.546 29.1597 115.782 29.2775C116.017 29.3953 116.328 29.4542 116.713 29.4542C117.174 29.4542 117.506 29.3578 117.709 29.165C117.913 28.9616 118.014 28.7367 118.014 28.4904C118.014 28.2549 117.923 28.0675 117.741 27.9283C117.57 27.7783 117.313 27.6659 116.97 27.5909L115.798 27.35C115.327 27.2536 114.887 27.1144 114.481 26.9324C114.074 26.7396 113.742 26.4827 113.485 26.1614C113.228 25.8295 113.099 25.4065 113.099 24.8925C113.099 24.1322 113.388 23.5058 113.967 23.0132C114.545 22.5099 115.332 22.2583 116.328 22.2583C116.959 22.2583 117.479 22.344 117.886 22.5153C118.303 22.6866 118.635 22.9008 118.882 23.1578C119.139 23.4148 119.326 23.6718 119.444 23.9288C119.572 24.1858 119.653 24.4053 119.685 24.5873C119.728 24.7586 119.749 24.8443 119.749 24.8443H117.789C117.789 24.8443 117.773 24.7961 117.741 24.6998C117.709 24.5927 117.639 24.4749 117.532 24.3464C117.436 24.2179 117.286 24.1054 117.083 24.0091C116.89 23.902 116.628 23.8485 116.296 23.8485C115.846 23.8485 115.525 23.9448 115.332 24.1376C115.15 24.3303 115.059 24.5338 115.059 24.7479C115.059 24.9835 115.161 25.1656 115.364 25.2941C115.567 25.4225 115.83 25.5189 116.151 25.5832L117.259 25.8241C118.052 25.9847 118.7 26.2631 119.203 26.6593C119.717 27.0555 119.974 27.6284 119.974 28.378C119.974 28.8813 119.84 29.3417 119.572 29.7593C119.315 30.1663 118.935 30.4929 118.432 30.7391C117.939 30.9747 117.34 31.0925 116.633 31.0925ZM125.348 31.0925C124.77 31.0925 124.293 31.0068 123.918 30.8355C123.544 30.6642 123.249 30.4393 123.035 30.1609C122.831 29.8825 122.687 29.5773 122.601 29.2454C122.516 28.9134 122.473 28.5868 122.473 28.2656V24.1376H121.011V22.4189H122.473V20.2987H124.609V22.4189H126.52V24.1376H124.609V28.2174C124.609 28.9777 125.037 29.3578 125.894 29.3578C126.097 29.3578 126.285 29.3471 126.456 29.3257C126.638 29.2935 126.729 29.2775 126.729 29.2775V30.9479C126.729 30.9479 126.59 30.9694 126.312 31.0122C126.044 31.0657 125.723 31.0925 125.348 31.0925ZM132.526 31.0925C131.594 31.0925 130.802 30.8837 130.148 30.4661C129.495 30.0485 128.997 29.5077 128.655 28.8438C128.323 28.1692 128.157 27.4464 128.157 26.6754C128.157 25.9044 128.323 25.187 128.655 24.5231C128.997 23.8485 129.495 23.3023 130.148 22.8847C130.802 22.4671 131.594 22.2583 132.526 22.2583C133.468 22.2583 134.26 22.4671 134.903 22.8847C135.556 23.3023 136.049 23.8485 136.381 24.5231C136.723 25.187 136.895 25.9044 136.895 26.6754C136.895 27.4464 136.723 28.1692 136.381 28.8438C136.049 29.5077 135.556 30.0485 134.903 30.4661C134.26 30.8837 133.468 31.0925 132.526 31.0925ZM132.526 29.3096C133.008 29.3096 133.409 29.1865 133.73 28.9402C134.062 28.6939 134.314 28.3726 134.485 27.9764C134.657 27.5695 134.742 27.1359 134.742 26.6754C134.742 26.2042 134.657 25.7706 134.485 25.3744C134.314 24.9782 134.062 24.6569 133.73 24.4106C133.409 24.1643 133.008 24.0412 132.526 24.0412C132.055 24.0412 131.653 24.1643 131.321 24.4106C130.989 24.6569 130.737 24.9782 130.566 25.3744C130.395 25.7706 130.309 26.2042 130.309 26.6754C130.309 27.1359 130.395 27.5695 130.566 27.9764C130.737 28.3726 130.989 28.6939 131.321 28.9402C131.653 29.1865 132.055 29.3096 132.526 29.3096ZM138.763 30.9319V22.4189H140.884V23.5915H140.964C141.114 23.2595 141.36 22.9543 141.703 22.6759C142.045 22.3975 142.559 22.2583 143.245 22.2583C143.459 22.2583 143.636 22.2744 143.775 22.3065C143.914 22.3279 143.984 22.3386 143.984 22.3386V24.4106C143.984 24.4106 143.903 24.3999 143.743 24.3785C143.593 24.3571 143.405 24.3464 143.18 24.3464C142.431 24.3464 141.863 24.5552 141.478 24.9728C141.092 25.3904 140.9 26.065 140.9 26.9966V30.9319H138.763ZM149.103 31.0925C148.374 31.0925 147.743 30.9694 147.207 30.7231C146.682 30.4661 146.243 30.1288 145.89 29.7112C145.547 29.2828 145.29 28.8063 145.119 28.2816C144.948 27.7569 144.862 27.2215 144.862 26.6754C144.862 26.1293 144.942 25.5992 145.103 25.0852C145.274 24.5605 145.526 24.084 145.858 23.6557C146.201 23.2274 146.634 22.8901 147.159 22.6438C147.684 22.3868 148.305 22.2583 149.022 22.2583C149.793 22.2583 150.473 22.4296 151.062 22.7723C151.651 23.1149 152.112 23.6182 152.443 24.2821C152.775 24.9353 152.941 25.7491 152.941 26.7236V27.2697H147.014C147.047 27.8479 147.245 28.3512 147.609 28.7795C147.973 29.1972 148.471 29.406 149.103 29.406C149.467 29.406 149.766 29.3471 150.002 29.2293C150.238 29.1115 150.42 28.9777 150.548 28.8277C150.677 28.6671 150.768 28.5333 150.821 28.4262C150.875 28.3084 150.901 28.2495 150.901 28.2495H152.877C152.877 28.2495 152.85 28.3459 152.797 28.5386C152.743 28.7207 152.642 28.9562 152.492 29.2454C152.352 29.5238 152.144 29.8075 151.865 30.0967C151.587 30.3751 151.223 30.6106 150.773 30.8034C150.323 30.9961 149.766 31.0925 149.103 31.0925ZM147.014 25.8723H150.885C150.853 25.2084 150.655 24.7158 150.291 24.3946C149.927 24.0733 149.499 23.9127 149.006 23.9127C148.46 23.9127 148.005 24.0894 147.641 24.4428C147.277 24.7854 147.068 25.2619 147.014 25.8723Z" fill="white"/>
</svg>
