<svg width="174" height="51" viewBox="0 0 174 51" fill="none" xmlns="http://www.w3.org/2000/svg">
<rect width="173.115" height="50.8636" rx="25.4318" fill="#91366C"/>
<path d="M41.9449 24.9322L45.7929 21.0841L33.3639 14.0986C32.5401 13.6535 31.7684 13.591 31.0917 14.0777L41.9449 24.9322ZM46.4488 29.4374L50.4491 27.1874C51.2299 26.7501 51.6581 26.1307 51.6581 25.4436C51.6581 24.7578 51.2299 24.1371 50.4504 23.6998L46.8288 21.6658L42.7517 25.7416L46.4488 29.4374V29.4374ZM30.4229 15.0238C30.3396 15.2802 30.2927 15.5665 30.2927 15.8801V35.0162C30.2927 35.512 30.402 35.9389 30.5998 36.2785L41.1368 25.7403L30.4229 15.0238ZM41.9449 26.5471L31.4665 37.0268C31.6669 37.1036 31.883 37.1439 32.1107 37.1439C32.5167 37.1439 32.9396 37.0242 33.3704 36.7847L45.4142 30.0217L41.9449 26.5471V26.5471Z" fill="white"/>
<path d="M68.1839 30.9319V19.0459H72.8741C73.8271 19.0459 74.6195 19.2386 75.2513 19.6241C75.8831 19.9989 76.3543 20.4915 76.6648 21.1018C76.986 21.7015 77.1467 22.3279 77.1467 22.9811C77.1467 23.6343 76.986 24.2661 76.6648 24.8764C76.3543 25.4761 75.8831 25.9687 75.2513 26.3542C74.6195 26.7396 73.8271 26.9324 72.8741 26.9324H70.3684V30.9319H68.1839ZM72.858 20.9412H70.3684V25.0371H72.858C73.3292 25.0371 73.7201 24.9407 74.0306 24.7479C74.3411 24.5445 74.5713 24.2875 74.7213 23.977C74.8819 23.6557 74.9622 23.3291 74.9622 22.9972C74.9622 22.6545 74.8819 22.3279 74.7213 22.0174C74.5713 21.7068 74.3411 21.4498 74.0306 21.2464C73.7201 21.0429 73.3292 20.9412 72.858 20.9412ZM78.8973 30.9319L78.9134 18.7246H81.0336V30.9319H78.8973ZM86.7748 22.2583C87.3209 22.2583 87.7707 22.3493 88.124 22.5314C88.4774 22.7027 88.7558 22.8954 88.9593 23.1096C89.1627 23.313 89.3019 23.479 89.3769 23.6075H89.4733V22.4189H91.6095V30.9319H89.4733V29.7433H89.3769C89.3019 29.8718 89.1627 30.0431 88.9593 30.2573C88.7558 30.4714 88.4774 30.6642 88.124 30.8355C87.7707 31.0068 87.3209 31.0925 86.7748 31.0925C86.143 31.0925 85.5916 30.9694 85.1204 30.7231C84.6492 30.4661 84.253 30.1288 83.9318 29.7112C83.6213 29.2828 83.3857 28.8063 83.2251 28.2816C83.0752 27.7569 83.0002 27.2215 83.0002 26.6754C83.0002 26.1293 83.0752 25.5939 83.2251 25.0692C83.3857 24.5445 83.6213 24.0733 83.9318 23.6557C84.253 23.2274 84.6492 22.8901 85.1204 22.6438C85.5916 22.3868 86.143 22.2583 86.7748 22.2583ZM87.337 24.0091C86.8551 24.0091 86.4482 24.1429 86.1163 24.4106C85.795 24.6676 85.5541 24.9996 85.3935 25.4065C85.2328 25.8134 85.1525 26.2364 85.1525 26.6754C85.1525 27.1144 85.2328 27.5374 85.3935 27.9443C85.5541 28.3512 85.795 28.6885 86.1163 28.9562C86.4482 29.2132 86.8551 29.3417 87.337 29.3417C87.8189 29.3417 88.2204 29.2132 88.5417 28.9562C88.8629 28.6885 89.1038 28.3512 89.2645 27.9443C89.4251 27.5374 89.5054 27.1144 89.5054 26.6754C89.5054 26.2364 89.4251 25.8134 89.2645 25.4065C89.1038 24.9996 88.8629 24.6676 88.5417 24.4106C88.2204 24.1429 87.8189 24.0091 87.337 24.0091ZM93.9811 34.064C93.7027 34.064 93.4725 34.0533 93.2904 34.0319C93.1191 34.0105 93.0334 33.9998 93.0334 33.9998V32.249C93.0334 32.249 93.1137 32.2543 93.2744 32.265C93.435 32.2865 93.6224 32.2972 93.8365 32.2972C94.3827 32.2972 94.8324 32.2062 95.1858 32.0241C95.5498 31.8528 95.855 31.5262 96.1013 31.0443L92.9049 22.4189H95.0733L97.2096 28.4904L99.3137 22.4189H101.482L98.3661 30.7231C97.9378 31.8581 97.3863 32.6987 96.7117 33.2448C96.0371 33.791 95.1269 34.064 93.9811 34.064ZM110.048 31.0925C109.352 31.0925 108.779 31.0015 108.329 30.8194C107.879 30.6267 107.52 30.3911 107.253 30.1127C106.996 29.8236 106.803 29.5398 106.675 29.2614C106.546 28.983 106.46 28.7528 106.418 28.5707C106.385 28.378 106.369 28.2816 106.369 28.2816H108.393C108.393 28.2816 108.409 28.3405 108.441 28.4583C108.484 28.5761 108.559 28.7153 108.666 28.8759C108.784 29.0258 108.961 29.1597 109.196 29.2775C109.432 29.3953 109.742 29.4542 110.128 29.4542C110.588 29.4542 110.92 29.3578 111.124 29.165C111.327 28.9616 111.429 28.7367 111.429 28.4904C111.429 28.2549 111.338 28.0675 111.156 27.9283C110.985 27.7783 110.728 27.6659 110.385 27.5909L109.212 27.35C108.741 27.2536 108.302 27.1144 107.895 26.9324C107.488 26.7396 107.156 26.4827 106.899 26.1614C106.642 25.8295 106.514 25.4065 106.514 24.8925C106.514 24.1322 106.803 23.5058 107.381 23.0132C107.959 22.5099 108.747 22.2583 109.742 22.2583C110.374 22.2583 110.894 22.344 111.3 22.5153C111.718 22.6866 112.05 22.9008 112.296 23.1578C112.553 23.4148 112.741 23.6718 112.858 23.9288C112.987 24.1858 113.067 24.4053 113.099 24.5873C113.142 24.7586 113.164 24.8443 113.164 24.8443H111.204C111.204 24.8443 111.188 24.7961 111.156 24.6998C111.124 24.5927 111.054 24.4749 110.947 24.3464C110.851 24.2179 110.701 24.1054 110.497 24.0091C110.305 23.902 110.042 23.8485 109.71 23.8485C109.261 23.8485 108.939 23.9448 108.747 24.1376C108.564 24.3303 108.473 24.5338 108.473 24.7479C108.473 24.9835 108.575 25.1656 108.779 25.2941C108.982 25.4225 109.244 25.5189 109.566 25.5832L110.674 25.8241C111.466 25.9847 112.114 26.2631 112.618 26.6593C113.132 27.0555 113.389 27.6284 113.389 28.378C113.389 28.8813 113.255 29.3417 112.987 29.7593C112.73 30.1663 112.35 30.4929 111.847 30.7391C111.354 30.9747 110.754 31.0925 110.048 31.0925ZM118.763 31.0925C118.184 31.0925 117.708 31.0068 117.333 30.8355C116.958 30.6642 116.664 30.4393 116.45 30.1609C116.246 29.8825 116.102 29.5773 116.016 29.2454C115.93 28.9134 115.887 28.5868 115.887 28.2656V24.1376H114.426V22.4189H115.887V20.2987H118.024V22.4189H119.935V24.1376H118.024V28.2174C118.024 28.9777 118.452 29.3578 119.309 29.3578C119.512 29.3578 119.7 29.3471 119.871 29.3257C120.053 29.2935 120.144 29.2775 120.144 29.2775V30.9479C120.144 30.9479 120.005 30.9694 119.726 31.0122C119.459 31.0657 119.137 31.0925 118.763 31.0925ZM125.94 31.0925C125.009 31.0925 124.216 30.8837 123.563 30.4661C122.91 30.0485 122.412 29.5077 122.069 28.8438C121.737 28.1692 121.571 27.4464 121.571 26.6754C121.571 25.9044 121.737 25.187 122.069 24.5231C122.412 23.8485 122.91 23.3023 123.563 22.8847C124.216 22.4671 125.009 22.2583 125.94 22.2583C126.883 22.2583 127.675 22.4671 128.318 22.8847C128.971 23.3023 129.463 23.8485 129.795 24.5231C130.138 25.187 130.309 25.9044 130.309 26.6754C130.309 27.4464 130.138 28.1692 129.795 28.8438C129.463 29.5077 128.971 30.0485 128.318 30.4661C127.675 30.8837 126.883 31.0925 125.94 31.0925ZM125.94 29.3096C126.422 29.3096 126.824 29.1865 127.145 28.9402C127.477 28.6939 127.729 28.3726 127.9 27.9764C128.071 27.5695 128.157 27.1359 128.157 26.6754C128.157 26.2042 128.071 25.7706 127.9 25.3744C127.729 24.9782 127.477 24.6569 127.145 24.4106C126.824 24.1643 126.422 24.0412 125.94 24.0412C125.469 24.0412 125.068 24.1643 124.736 24.4106C124.404 24.6569 124.152 24.9782 123.981 25.3744C123.809 25.7706 123.724 26.2042 123.724 26.6754C123.724 27.1359 123.809 27.5695 123.981 27.9764C124.152 28.3726 124.404 28.6939 124.736 28.9402C125.068 29.1865 125.469 29.3096 125.94 29.3096ZM132.178 30.9319V22.4189H134.298V23.5915H134.379C134.528 23.2595 134.775 22.9543 135.117 22.6759C135.46 22.3975 135.974 22.2583 136.659 22.2583C136.874 22.2583 137.05 22.2744 137.189 22.3065C137.329 22.3279 137.398 22.3386 137.398 22.3386V24.4106C137.398 24.4106 137.318 24.3999 137.157 24.3785C137.007 24.3571 136.82 24.3464 136.595 24.3464C135.846 24.3464 135.278 24.5552 134.893 24.9728C134.507 25.3904 134.314 26.065 134.314 26.9966V30.9319H132.178ZM142.517 31.0925C141.789 31.0925 141.157 30.9694 140.622 30.7231C140.097 30.4661 139.658 30.1288 139.305 29.7112C138.962 29.2828 138.705 28.8063 138.534 28.2816C138.362 27.7569 138.277 27.2215 138.277 26.6754C138.277 26.1293 138.357 25.5992 138.518 25.0852C138.689 24.5605 138.941 24.084 139.273 23.6557C139.615 23.2274 140.049 22.8901 140.574 22.6438C141.098 22.3868 141.719 22.2583 142.437 22.2583C143.208 22.2583 143.888 22.4296 144.477 22.7723C145.066 23.1149 145.526 23.6182 145.858 24.2821C146.19 24.9353 146.356 25.7491 146.356 26.7236V27.2697H140.429C140.461 27.8479 140.659 28.3512 141.023 28.7795C141.387 29.1972 141.885 29.406 142.517 29.406C142.881 29.406 143.181 29.3471 143.417 29.2293C143.652 29.1115 143.834 28.9777 143.963 28.8277C144.091 28.6671 144.182 28.5333 144.236 28.4262C144.289 28.3084 144.316 28.2495 144.316 28.2495H146.292C146.292 28.2495 146.265 28.3459 146.211 28.5386C146.158 28.7207 146.056 28.9562 145.906 29.2454C145.767 29.5238 145.558 29.8075 145.28 30.0967C145.001 30.3751 144.637 30.6106 144.188 30.8034C143.738 30.9961 143.181 31.0925 142.517 31.0925ZM140.429 25.8723H144.3C144.268 25.2084 144.07 24.7158 143.706 24.3946C143.342 24.0733 142.913 23.9127 142.421 23.9127C141.875 23.9127 141.42 24.0894 141.056 24.4428C140.691 24.7854 140.483 25.2619 140.429 25.8723Z" fill="white"/>
</svg>
